<?xml version="1.0" encoding="UTF-8" standalone="no"?>
<!-- Created with Inkscape (http://www.inkscape.org/) -->
<svg
   xmlns:dc="http://purl.org/dc/elements/1.1/"
   xmlns:cc="http://web.resource.org/cc/"
   xmlns:rdf="http://www.w3.org/1999/02/22-rdf-syntax-ns#"
   xmlns:svg="http://www.w3.org/2000/svg"
   xmlns="http://www.w3.org/2000/svg"
   xmlns:sodipodi="http://sodipodi.sourceforge.net/DTD/sodipodi-0.dtd"
   xmlns:inkscape="http://www.inkscape.org/namespaces/inkscape"
   width="640px"
   height="480px"
   id="svg2766"
   sodipodi:version="0.32"
   inkscape:version="0.45.1"
   sodipodi:docbase="/home/tom/bps/hiveminder-payments/static/raw_bees"
   sodipodi:docname="pro.logo.svg"
   inkscape:output_extension="org.inkscape.output.svg.inkscape">
  <defs
     id="defs2768" />
  <sodipodi:namedview
     id="base"
     pagecolor="#ffffff"
     bordercolor="#666666"
     borderopacity="1.0"
     inkscape:pageopacity="1"
     inkscape:pageshadow="2"
     inkscape:zoom="1"
     inkscape:cx="139.56069"
     inkscape:cy="200"
     inkscape:current-layer="layer1"
     inkscape:document-units="px"
     showguides="false"
     inkscape:guide-bbox="true"
     inkscape:window-width="744"
     inkscape:window-height="583"
     inkscape:window-x="275"
     inkscape:window-y="20">
    <sodipodi:guide
       orientation="vertical"
       position="246.8617"
       id="guide2787" />
    <sodipodi:guide
       orientation="vertical"
       position="259.12412"
       id="guide2789" />
  </sodipodi:namedview>
  <metadata
     id="metadata2771">
    <rdf:RDF>
      <cc:Work
         rdf:about="">
        <dc:format>image/svg+xml</dc:format>
        <dc:type
           rdf:resource="http://purl.org/dc/dcmitype/StillImage" />
      </cc:Work>
    </rdf:RDF>
  </metadata>
  <g
     id="layer1"
     inkscape:label="Layer 1"
     inkscape:groupmode="layer">
    <g
       transform="matrix(0.7809545,-0.1083103,0.1083103,0.7809545,15.813358,205.20819)"
       id="g2756">
      <path
         sodipodi:type="arc"
         style="fill:#d6d30e;fill-opacity:1;fill-rule:nonzero;stroke:#000000;stroke-width:1.58543193;stroke-linecap:round;stroke-linejoin:miter;stroke-miterlimit:4;stroke-opacity:1"
         id="path2758"
         sodipodi:cx="195.5"
         sodipodi:cy="28"
         sodipodi:rx="3.5"
         sodipodi:ry="3"
         d="M 199 28 A 3.5 3 0 1 1  192,28 A 3.5 3 0 1 1  199 28 z"
         transform="matrix(0.120698,1.07275,-0.811822,9.133964e-2,301.8905,-138.1341)" />
      <path
         transform="matrix(1.07275,-0.120698,9.133964e-2,0.811822,83.18291,68.20083)"
         d="M 199 28 A 3.5 3 0 1 1  192,28 A 3.5 3 0 1 1  199 28 z"
         sodipodi:ry="3"
         sodipodi:rx="3.5"
         sodipodi:cy="28"
         sodipodi:cx="195.5"
         id="path2760"
         style="fill:#d6d30e;fill-opacity:1;fill-rule:nonzero;stroke:#000000;stroke-width:1.58543193;stroke-linecap:round;stroke-linejoin:miter;stroke-miterlimit:4;stroke-opacity:1"
         sodipodi:type="arc" />
      <path
         sodipodi:type="arc"
         style="fill:#ffc64a;fill-opacity:1;fill-rule:nonzero;stroke:#000000;stroke-width:2.184232;stroke-linecap:round;stroke-linejoin:miter;stroke-miterlimit:4;stroke-opacity:1"
         id="path2762"
         sodipodi:cx="204.5"
         sodipodi:cy="29.5"
         sodipodi:rx="4.5"
         sodipodi:ry="6.5"
         d="M 209 29.5 A 4.5 6.5 0 1 1  200,29.5 A 4.5 6.5 0 1 1  209 29.5 z"
         transform="matrix(0.547999,0.605883,-0.605883,0.547999,204.7989,-69.20105)" />
      <path
         sodipodi:type="arc"
         style="fill:#eddc2c;fill-opacity:1;fill-rule:nonzero;stroke:#000000;stroke-width:1.79005957;stroke-linecap:round;stroke-linejoin:miter;stroke-miterlimit:4;stroke-opacity:1"
         id="path2764"
         sodipodi:cx="195.5"
         sodipodi:cy="28"
         sodipodi:rx="3.5"
         sodipodi:ry="3"
         d="M 199 28 A 3.5 3 0 1 1  192,28 A 3.5 3 0 1 1  199 28 z"
         transform="matrix(0.44214,0.488843,-0.42275,0.382361,229.1347,-39.62068)" />
    </g>
    <text
       xml:space="preserve"
       style="font-size:7.92689562px;font-style:normal;font-variant:normal;font-weight:bold;font-stretch:normal;line-height:125%;writing-mode:lr-tb;text-anchor:start;fill:#000000;fill-opacity:1;stroke:none;stroke-width:1pt;stroke-linecap:butt;stroke-linejoin:miter;stroke-opacity:1;font-family:Bitstream Vera Sans"
       x="246.71239"
       y="237.21162"
       id="text2779"
       sodipodi:linespacing="125%"><tspan
         sodipodi:role="line"
         id="tspan2781"
         x="246.71239"
         y="237.21162"
         style="font-size:7.92689562px;font-style:normal;font-variant:normal;font-weight:bold;font-stretch:normal;text-align:start;line-height:125%;writing-mode:lr-tb;text-anchor:start;font-family:Arial Rounded MT Bold"
         dx="0 -0.51159394 -0.34106264">Pro</tspan></text>
    <g
       id="g2836"
       transform="matrix(0.9390011,0,0,0.9390011,-10.062488,-1.508009)">
      <g
         transform="matrix(0.8035346,-0.1114419,0.1114419,0.8035346,-41.761843,203.94319)"
         id="g2791">
        <path
           sodipodi:type="arc"
           style="fill:#d6d30e;fill-opacity:1;fill-rule:nonzero;stroke:#000000;stroke-width:1.58543193;stroke-linecap:round;stroke-linejoin:miter;stroke-miterlimit:4;stroke-opacity:1"
           id="path2793"
           sodipodi:cx="195.5"
           sodipodi:cy="28"
           sodipodi:rx="3.5"
           sodipodi:ry="3"
           d="M 199 28 A 3.5 3 0 1 1  192,28 A 3.5 3 0 1 1  199 28 z"
           transform="matrix(0.120698,1.07275,-0.811822,9.133964e-2,301.8905,-138.1341)" />
        <path
           transform="matrix(1.07275,-0.120698,9.133964e-2,0.811822,83.18291,68.20083)"
           d="M 199 28 A 3.5 3 0 1 1  192,28 A 3.5 3 0 1 1  199 28 z"
           sodipodi:ry="3"
           sodipodi:rx="3.5"
           sodipodi:cy="28"
           sodipodi:cx="195.5"
           id="path2795"
           style="fill:#d6d30e;fill-opacity:1;fill-rule:nonzero;stroke:#000000;stroke-width:1.58543193;stroke-linecap:round;stroke-linejoin:miter;stroke-miterlimit:4;stroke-opacity:1"
           sodipodi:type="arc" />
        <path
           sodipodi:type="arc"
           style="fill:#ffc64a;fill-opacity:1;fill-rule:nonzero;stroke:#000000;stroke-width:2.184232;stroke-linecap:round;stroke-linejoin:miter;stroke-miterlimit:4;stroke-opacity:1"
           id="path2797"
           sodipodi:cx="204.5"
           sodipodi:cy="29.5"
           sodipodi:rx="4.5"
           sodipodi:ry="6.5"
           d="M 209 29.5 A 4.5 6.5 0 1 1  200,29.5 A 4.5 6.5 0 1 1  209 29.5 z"
           transform="matrix(0.547999,0.605883,-0.605883,0.547999,204.7989,-69.20105)" />
        <path
           sodipodi:type="arc"
           style="fill:#eddc2c;fill-opacity:1;fill-rule:nonzero;stroke:#000000;stroke-width:1.79005957;stroke-linecap:round;stroke-linejoin:miter;stroke-miterlimit:4;stroke-opacity:1"
           id="path2799"
           sodipodi:cx="195.5"
           sodipodi:cy="28"
           sodipodi:rx="3.5"
           sodipodi:ry="3"
           d="M 199 28 A 3.5 3 0 1 1  192,28 A 3.5 3 0 1 1  199 28 z"
           transform="matrix(0.44214,0.488843,-0.42275,0.382361,229.1347,-39.62068)" />
      </g>
      <text
         xml:space="preserve"
         style="font-size:8.98904896px;font-style:normal;font-variant:normal;font-weight:bold;font-stretch:normal;line-height:125%;writing-mode:lr-tb;text-anchor:start;fill:#000000;fill-opacity:1;stroke:none;stroke-width:1pt;stroke-linecap:butt;stroke-linejoin:miter;stroke-opacity:1;font-family:Bitstream Vera Sans"
         x="194.9982"
         y="237.4682"
         id="text2801"
         sodipodi:linespacing="125%"><tspan
           sodipodi:role="line"
           id="tspan2803"
           x="194.9982"
           y="237.4682"
           style="font-size:8.98904896px;font-style:normal;font-variant:normal;font-weight:bold;font-stretch:normal;text-align:start;line-height:125%;writing-mode:lr-tb;text-anchor:start;font-family:Arial Rounded MT Bold"
           dx="0 -0.58014423 -0.38676283">Pro</tspan></text>
    </g>
    <g
       transform="matrix(0.7545199,-0.1046441,0.1046441,0.7545199,-173.20079,196.13701)"
       id="g2184"
       inkscape:export-filename="/home/tom/bps/hiveminder-payments/static/images/pro.icon2.whitebg.png"
       inkscape:export-xdpi="90"
       inkscape:export-ydpi="90">
      <path
         sodipodi:type="arc"
         style="fill:#d6d30e;fill-opacity:1;fill-rule:nonzero;stroke:#000000;stroke-width:1.58543193;stroke-linecap:round;stroke-linejoin:miter;stroke-miterlimit:4;stroke-opacity:1"
         id="path2186"
         sodipodi:cx="195.5"
         sodipodi:cy="28"
         sodipodi:rx="3.5"
         sodipodi:ry="3"
         d="M 199 28 A 3.5 3 0 1 1  192,28 A 3.5 3 0 1 1  199 28 z"
         transform="matrix(0.120698,1.07275,-0.811822,9.133964e-2,301.8905,-138.1341)" />
      <path
         transform="matrix(1.07275,-0.120698,9.133964e-2,0.811822,83.18291,68.20083)"
         d="M 199 28 A 3.5 3 0 1 1  192,28 A 3.5 3 0 1 1  199 28 z"
         sodipodi:ry="3"
         sodipodi:rx="3.5"
         sodipodi:cy="28"
         sodipodi:cx="195.5"
         id="path2188"
         style="fill:#d6d30e;fill-opacity:1;fill-rule:nonzero;stroke:#000000;stroke-width:1.58543193;stroke-linecap:round;stroke-linejoin:miter;stroke-miterlimit:4;stroke-opacity:1"
         sodipodi:type="arc" />
      <path
         sodipodi:type="arc"
         style="fill:#ffc64a;fill-opacity:1;fill-rule:nonzero;stroke:#000000;stroke-width:2.184232;stroke-linecap:round;stroke-linejoin:miter;stroke-miterlimit:4;stroke-opacity:1"
         id="path2190"
         sodipodi:cx="204.5"
         sodipodi:cy="29.5"
         sodipodi:rx="4.5"
         sodipodi:ry="6.5"
         d="M 209 29.5 A 4.5 6.5 0 1 1  200,29.5 A 4.5 6.5 0 1 1  209 29.5 z"
         transform="matrix(0.547999,0.605883,-0.605883,0.547999,204.7989,-69.20105)" />
      <path
         sodipodi:type="arc"
         style="fill:#eddc2c;fill-opacity:1;fill-rule:nonzero;stroke:#000000;stroke-width:1.79005957;stroke-linecap:round;stroke-linejoin:miter;stroke-miterlimit:4;stroke-opacity:1"
         id="path2192"
         sodipodi:cx="195.5"
         sodipodi:cy="28"
         sodipodi:rx="3.5"
         sodipodi:ry="3"
         d="M 199 28 A 3.5 3 0 1 1  192,28 A 3.5 3 0 1 1  199 28 z"
         transform="matrix(0.44214,0.488843,-0.42275,0.382361,229.1347,-39.62068)" />
    </g>
    <text
       xml:space="preserve"
       style="font-size:8.44072723px;font-style:normal;font-variant:normal;font-weight:bold;font-stretch:normal;line-height:125%;writing-mode:lr-tb;text-anchor:start;fill:#000000;fill-opacity:1;stroke:none;stroke-width:1pt;stroke-linecap:butt;stroke-linejoin:miter;stroke-opacity:1;font-family:Bitstream Vera Sans"
       x="66.087723"
       y="221.22662"
       id="text2194"
       sodipodi:linespacing="125%"
       inkscape:export-filename="/home/tom/bps/hiveminder-payments/static/images/pro.icon2.whitebg.png"
       inkscape:export-xdpi="90"
       inkscape:export-ydpi="90"><tspan
         sodipodi:role="line"
         id="tspan2196"
         x="66.087723"
         y="221.22662"
         style="font-size:8.44072723px;font-style:normal;font-variant:normal;font-weight:bold;font-stretch:normal;text-align:start;line-height:125%;writing-mode:lr-tb;text-anchor:start;font-family:Arial Rounded MT Bold"
         dx="0 -0.54475605 -0.36317071">Pro</tspan></text>
    <g
       inkscape:export-ydpi="90"
       inkscape:export-xdpi="90"
       inkscape:export-filename="/home/tom/bps/hiveminder-payments/static/images/pro.icon2.whitebg.png"
       id="g2205"
       transform="matrix(0.7545199,-0.1046441,0.1046441,0.7545199,-92.95079,247.63701)">
      <path
         transform="matrix(0.120698,1.07275,-0.811822,9.133964e-2,301.8905,-138.1341)"
         d="M 199 28 A 3.5 3 0 1 1  192,28 A 3.5 3 0 1 1  199 28 z"
         sodipodi:ry="3"
         sodipodi:rx="3.5"
         sodipodi:cy="28"
         sodipodi:cx="195.5"
         id="path2207"
         style="fill:#d6d30e;fill-opacity:1;fill-rule:nonzero;stroke:#000000;stroke-width:1.58543193;stroke-linecap:round;stroke-linejoin:miter;stroke-miterlimit:4;stroke-opacity:1"
         sodipodi:type="arc" />
      <path
         sodipodi:type="arc"
         style="fill:#d6d30e;fill-opacity:1;fill-rule:nonzero;stroke:#000000;stroke-width:1.58543193;stroke-linecap:round;stroke-linejoin:miter;stroke-miterlimit:4;stroke-opacity:1"
         id="path2209"
         sodipodi:cx="195.5"
         sodipodi:cy="28"
         sodipodi:rx="3.5"
         sodipodi:ry="3"
         d="M 199 28 A 3.5 3 0 1 1  192,28 A 3.5 3 0 1 1  199 28 z"
         transform="matrix(1.07275,-0.120698,9.133964e-2,0.811822,83.18291,68.20083)" />
      <path
         transform="matrix(0.547999,0.605883,-0.605883,0.547999,204.7989,-69.20105)"
         d="M 209 29.5 A 4.5 6.5 0 1 1  200,29.5 A 4.5 6.5 0 1 1  209 29.5 z"
         sodipodi:ry="6.5"
         sodipodi:rx="4.5"
         sodipodi:cy="29.5"
         sodipodi:cx="204.5"
         id="path2211"
         style="fill:#ffc64a;fill-opacity:1;fill-rule:nonzero;stroke:#000000;stroke-width:2.184232;stroke-linecap:round;stroke-linejoin:miter;stroke-miterlimit:4;stroke-opacity:1"
         sodipodi:type="arc" />
      <path
         transform="matrix(0.44214,0.488843,-0.42275,0.382361,229.1347,-39.62068)"
         d="M 199 28 A 3.5 3 0 1 1  192,28 A 3.5 3 0 1 1  199 28 z"
         sodipodi:ry="3"
         sodipodi:rx="3.5"
         sodipodi:cy="28"
         sodipodi:cx="195.5"
         id="path2213"
         style="fill:#eddc2c;fill-opacity:1;fill-rule:nonzero;stroke:#000000;stroke-width:1.79005957;stroke-linecap:round;stroke-linejoin:miter;stroke-miterlimit:4;stroke-opacity:1"
         sodipodi:type="arc" />
    </g>
    <text
       inkscape:export-ydpi="90"
       inkscape:export-xdpi="90"
       inkscape:export-filename="/home/tom/bps/hiveminder-payments/static/images/pro.icon2.whitebg.png"
       sodipodi:linespacing="125%"
       id="text2215"
       y="273.27518"
       x="146.18872"
       style="font-size:10.22950745px;font-style:normal;font-variant:normal;font-weight:bold;font-stretch:normal;line-height:125%;writing-mode:lr-tb;text-anchor:start;fill:#000000;fill-opacity:1;stroke:none;stroke-width:1pt;stroke-linecap:butt;stroke-linejoin:miter;stroke-opacity:1;font-family:Bitstream Vera Sans"
       xml:space="preserve"><tspan
         style="font-size:10px;font-style:normal;font-variant:normal;font-weight:bold;font-stretch:normal;text-align:start;line-height:125%;writing-mode:lr-tb;text-anchor:start;font-family:Arial Rounded MT Bold"
         y="273.27518"
         x="146.18872"
         id="tspan2217"
         sodipodi:role="line"
         dx="0 -0.80324352 -0.44013473">Pro</tspan></text>
  </g>
</svg>
